#define max_width 10
#define max_height 10
static unsigned char max_bits[] = {
   0x30, 0x00, 0x78, 0x00, 0xcc, 0x00, 0x86, 0x01, 0x03, 0x03, 0x31, 0x02,
   0x48, 0x00, 0x84, 0x00, 0x02, 0x01, 0x01, 0x02 };
