#define max_toggled_width 10
#define max_toggled_height 10
static unsigned char max_toggled_bits[] = {
   0x01, 0x02, 0x02, 0x01, 0x84, 0x00, 0x48, 0x00, 0x31, 0x02, 0x03, 0x03,
   0x86, 0x01, 0xcc, 0x00, 0x78, 0x00, 0x30, 0x00 };
