#define max_width 10
#define max_height 10
static unsigned char max_bits[] = {
   0x00, 0x00, 0x30, 0x00, 0x48, 0x00, 0x84, 0x00, 0x02, 0x01, 0x31, 0x02,
   0x48, 0x00, 0x84, 0x00, 0x02, 0x01, 0x01, 0x02 };
