/* XPM */
static char * title_2_inactive_xpm[] = {
"5 25 3 1",
" 	c None",
".	c #CBCBCB",
"+	c #E1E1E1",
".....",
"+++++",
"+++++",
"+++++",
"+++++",
"+++++",
"+++++",
"+++++",
"+++++",
"+++++",
"+++++",
"+++++",
"+++++",
"+++++",
"+++++",
"+++++",
"+++++",
"+++++",
"+++++",
"+++++",
"+++++",
"+++++",
"+++++",
"+++++",
"+++++"};
