/* XPM */
static char * title_4_inactive_xpm[] = {
"5 25 3 1",
" 	c None",
".	c #CBCBCB",
"+	c #E1E1E1",
".....",
"+++++",
"+++++",
"+++++",
"+++++",
"+++++",
"+++++",
"+++++",
"+++++",
"+++++",
"+++++",
"+++++",
"+++++",
"+++++",
"+++++",
"+++++",
"+++++",
"+++++",
"+++++",
"+++++",
"+++++",
"+++++",
"+++++",
"+++++",
"+++++"};
