/* XPM */
static char * title_1_active_xpm[] = {
"5 25 3 1",
" 	c None",
".	c #6C99C0 s active_shadow_1",
"+	c #4F5E76 s active_color_1",
".....",
"+++++",
"+++++",
"+++++",
"+++++",
"+++++",
"+++++",
"+++++",
"+++++",
"+++++",
"+++++",
"+++++",
"+++++",
"+++++",
"+++++",
"+++++",
"+++++",
"+++++",
"+++++",
"+++++",
"+++++",
"+++++",
"+++++",
"+++++",
"+++++"};
