/* XPM */
static char * top_left_inactive_xpm[] = {
"4 36 3 1",
" 	c None",
".	c #CBCBCB",
"+	c #E1E1E1",
"....",
".+++",
".+++",
".+++",
".+++",
".+++",
".+++",
".+++",
".+++",
".+++",
".+++",
".+++",
".+++",
".+++",
".+++",
".+++",
".+++",
".+++",
".+++",
".+++",
".+++",
".+++",
".+++",
".+++",
".+++",
".+++",
".+++",
".+++",
".+++",
".+++",
".+++",
".+++",
".+++",
".+++",
".+++",
".+++"};
