/* XPM */
static char * bottom_left_inactive_xpm[] = {
"8 8 3 1",
" 	c None",
".	c #969696",
"+	c #626262",
".+++++++",
".+++++++",
".+++++++",
".+++++++",
".+++++++",
".+++++++",
".+++++++",
"........"};
