/* XPM */
static char * menu_active_xpm[] = {
"26 26 3 1",
" 	c None",
".	c #6C99C0",
"+	c #4F5E76",
"..........................",
"++++++++++++++++++++++++++",
"++++++++++++++++++++++++++",
"++++++++++++++++++++++++++",
"++++++++++++++++++++++++++",
"++++++++++++++++++++++++++",
"++++++++++++++++++++++++++",
"++++++++++++++++++++++++++",
"++++++++++++++++++++++++++",
"++++++++++++++++++++++++++",
"++++++++++++++++++++++++++",
"++++++++++++++++++++++++++",
"++++++++++++++++++++++++++",
"++++++++++++++++++++++++++",
"++++++++++++++++++++++++++",
"++++++++++++++++++++++++++",
"++++++++++++++++++++++++++",
"++++++++++++++++++++++++++",
"++++++++++++++++++++++++++",
"++++++++++++++++++++++++++",
"++++++++++++++++++++++++++",
"++++++++++++++++++++++++++",
"++++++++++++++++++++++++++",
"++++++++++++++++++++++++++",
"++++++++++++++++++++++++++",
"++++++++++++++++++++++++++"};
