/* XPM */
static char * title_1_inactive_xpm[] = {
"5 25 3 1",
" 	c None",
".	c #969696 s inactive_hilight_1",
"+	c #626262 s inactive_color_1",
".....",
"+++++",
"+++++",
"+++++",
"+++++",
"+++++",
"+++++",
"+++++",
"+++++",
"+++++",
"+++++",
"+++++",
"+++++",
"+++++",
"+++++",
"+++++",
"+++++",
"+++++",
"+++++",
"+++++",
"+++++",
"+++++",
"+++++",
"+++++",
"+++++"};
